:SAMPLES-PER-SECOND 30
:FULLY-SPECIFIED
:DEGREES
139
root  17.8875 35.6304 11.9579 -179.471 6.96265 173.294
RightUpLeg  -24.8123 -14.6032 -23.8829
RightLeg  40.7365 -4.09882 -4.05958
RightFoot  -9.31789 -0.51178 24.9909
RightToes  -1.74624e-010 0 -3.6325e-017
Spine  14.6995 -0.724175 4.15035
Spine1  22.4898 -1.21121 2.62194
HEad  -17.2462 19.267 -18.4487
LeftShoulder1  1.32651 -2.53778 -15.1205
LeftArm  15.8368 11.747 -61.9832
LeftForeArm  69.4267 -79.275 -78.7949
LeftHand  -2.42116 -3.27813 31.9238
RightShoulder  0.581087 -0.35703 11.3901
RightArm  -2.9839 -4.79448 52.8664
RightForeArm  150.217 64.679 157.125
RightHand  -1.03242 4.81843 -11.9896
LeftUpLeg  -24.0745 -4.17968 12.4656
LeftLeg  42.048 2.81254 3.12312
LeftFoot  -11.553 0.0351088 -17.535
LeftToes  3.7286e-011 -1.5702e-010 -9.70233e-012
140
root  17.2168 35.6354 11.7717 -179.821 6.98087 173.63
RightUpLeg  -23.3929 -13.6727 -24.8793
RightLeg  39.0316 -4.56062 -4.22347
RightFoot  -8.11554 -0.798237 25.9078
RightToes  -1.74624e-010 0 -3.6325e-017
Spine  13.9374 -0.887621 3.21044
Spine1  23.8352 -1.56396 2.47184
HEad  -16.81 19.5249 -17.9763
LeftShoulder1  1.37999 -2.76525 -15.183
LeftArm  16.3275 12.6744 -62.6895
LeftForeArm  61.0967 -78.8907 -73.2815
LeftHand  -2.59498 -2.88537 35.5986
RightShoulder  0.605509 -0.317448 11.9864
RightArm  -3.5009 -4.8258 52.807
RightForeArm  150.117 65.0904 156.709
RightHand  -1.07008 4.83968 -12.3882
LeftUpLeg  -23.492 -5.14218 12.3877
LeftLeg  42.9844 5.57299 5.92957
LeftFoot  -12.1659 -0.0355169 -14.5296
LeftToes  3.7286e-011 -1.5702e-010 -9.70233e-012
141
root  16.3405 35.7498 11.5259 -179.933 6.90747 174.103
RightUpLeg  -21.3341 -12.4599 -25.9597
RightLeg  35.7827 -5.78742 -4.71346
RightFoot  -5.90889 -1.36764 27.4151
RightToes  -1.74624e-010 0 -3.6325e-017
Spine  13.1804 -1.17127 2.46348
Spine1  24.6833 -2.04823 2.44341
HEad  -16.2081 19.9191 -17.5735
LeftShoulder1  1.43747 -2.98975 -15.3205
LeftArm  17.6474 13.385 -63.5733
LeftForeArm  57.8817 -78.7299 -72.459
LeftHand  -2.65518 -2.73813 36.9806
RightShoulder  0.648762 -0.235278 12.932
RightArm  -4.03617 -6.21578 52.957
RightForeArm  150.33 65.3235 156.497
RightHand  -1.10315 4.88661 -12.7044
LeftUpLeg  -22.6482 -5.92758 12.2573
LeftLeg  42.8349 7.65768 7.93674
LeftFoot  -11.7106 0.0237588 -14.6958
LeftToes  3.7286e-011 -1.5702e-010 -9.70233e-012
142
root  15.2635 35.9066 11.2539 -179.544 7.2496 174.363
RightUpLeg  -19.4333 -11.4574 -27.3102
RightLeg  31.2687 -7.27926 -4.98622
RightFoot  -2.70318 -2.2292 28.7123
RightToes  -1.74624e-010 0 -3.6325e-017
Spine  12.5797 -1.22038 1.44079
Spine1  24.5597 -2.43276 2.87807
HEad  -15.4434 20.4395 -17.2471
LeftShoulder1  1.46548 -3.11625 -15.3214
LeftArm  19.3644 13.5854 -64.8377
LeftForeArm  59.4683 -78.8219 -74.0618
LeftHand  -2.52846 -2.81614 34.9967
RightShoulder  0.673414 -0.234446 13.7645
RightArm  -4.3907 -8.76671 53.3369
RightForeArm  150.515 65.3241 156.516
RightHand  -1.09191 4.93071 -12.5269
LeftUpLeg  -22.2139 -5.99321 11.5712
LeftLeg  42.1558 7.04472 7.17979
LeftFoot  -12.0559 -0.0479204 -18.2613
LeftToes  3.7286e-011 -1.5702e-010 -9.70233e-012
143
root  14.0527 36.0463 10.9849 -178.938 8.45023 174.206
RightUpLeg  -17.944 -10.3341 -29.0662
RightLeg  25.7797 -8.42607 -4.6121
RightFoot  1.02208 -3.18977 28.9446
RightToes  -1.74624e-010 0 -3.6325e-017
Spine  12.3461 -0.928968 -0.149433
Spine1  23.6407 -2.4801 3.33498
HEad  -15.0506 20.9875 -16.9792
LeftShoulder1  1.43721 -3.05784 -15.0643
LeftArm  21.1279 12.9553 -66.2646
LeftForeArm  65.6396 -79.1028 -78.418
LeftHand  -2.32055 -3.00352 31.627
RightShoulder  0.689651 -0.204943 14.1046
RightArm  -4.59879 -11.9902 54.0724
RightForeArm  150.794 65.031 156.84
RightHand  -1.03364 4.89499 -11.9177
LeftUpLeg  -22.2657 -4.22763 9.8364
LeftLeg  41.9997 4.9953 5.19446
LeftFoot  -13.5667 -0.327765 -20.9236
LeftToes  3.7286e-011 -1.5702e-010 -9.70233e-012
144
root  12.7963 36.1333 10.7331 -178.712 10.5113 173.858
RightUpLeg  -16.479 -8.86551 -30.8884
RightLeg  19.5791 -9.56369 -4.05351
RightFoot  5.14421 -4.20241 28.6732
RightToes  -1.74624e-010 0 -3.6325e-017
Spine  12.1753 -0.494854 -1.92938
Spine1  23.2156 -2.13489 3.06512
HEad  -15.4437 21.4785 -16.8727
LeftShoulder1  1.38979 -2.87913 -14.9237
LeftArm  22.7991 10.7136 -66.8866
LeftForeArm  74.3829 -79.3539 -85.8934
LeftHand  -2.20244 -3.23116 29.3482
RightShoulder  0.743984 0.0450876 14.159
RightArm  -4.74048 -14.8708 55.0269
RightForeArm  151.128 64.5796 157.318
RightHand  -0.982886 4.78966 -11.4633
LeftUpLeg  -22.1852 -0.0813185 7.33765
LeftLeg  42.5947 3.49173 3.83704
LeftFoot  -15.6543 -0.633499 -19.3176
LeftToes  3.7286e-011 -1.5702e-010 -9.70233e-012
145
root  11.5184 36.1523 10.503 -179.253 12.8633 173.769
RightUpLeg  -14.6872 -9.89506 -31.563
RightLeg  13.2294 -10.0866 -4.24532
RightFoot  10.2444 -5.3467 27.9483
RightToes  -1.74624e-010 0 -3.6325e-017
Spine  11.6692 -0.243244 -3.07992
Spine1  24.3808 -1.68001 2.11934
HEad  -16.1549 22.0192 -17.0615
LeftShoulder1  1.38802 -2.79643 -15.202
LeftArm  23.891 6.20427 -66.2269
LeftForeArm  78.4486 -79.3756 -90.1794
LeftHand  -2.18476 -3.37484 28.6638
RightShoulder  0.832932 0.439081 14.3252
RightArm  -4.57062 -16.1573 55.9086
RightForeArm  150.791 64.5161 157.343
RightHand  -0.969447 4.68367 -11.4236
LeftUpLeg  -21.4186 4.9435 4.98612
LeftLeg  43.4025 2.67537 3.12063
LeftFoot  -18.1015 -0.799296 -15.306
LeftToes  3.7286e-011 -1.5702e-010 -9.70233e-012
146
root  10.2365 36.1432 10.3005 179.566 14.9028 173.916
RightUpLeg  -12.9748 -15.2836 -30.7327
RightLeg  8.17629 -8.67582 -5.01818
RightFoot  15.424 -5.99574 25.3166
RightToes  -1.74624e-010 0 -3.6325e-017
Spine  11.1318 -0.234153 -3.6536
Spine1  26.5043 -1.48949 1.37763
HEad  -16.272 22.8233 -17.4403
LeftShoulder1  1.44173 -2.99215 -15.3855
LeftArm  23.5629 0.382272 -65.1891
LeftForeArm  71.9644 -79.2723 -84.7147
LeftHand  -2.20807 -3.20802 29.491
RightShoulder  0.900859 0.732218 14.4778
RightArm  -3.65754 -15.6168 56.6576
RightForeArm  149.717 65.2262 156.524
RightHand  -0.96006 4.60016 -11.4056
LeftUpLeg  -20.068 8.25133 3.05046
LeftLeg  44.0158 2.33973 2.84395
LeftFoot  -20.3693 -0.854295 -12.286
LeftToes  3.7286e-011 -1.5702e-010 -9.70233e-012
147
root  9.03196 36.2078 10.1323 178.284 16.6795 173.924
RightUpLeg  -12.1631 -17.1137 -30.4545
RightLeg  6.90407 -8.93756 -5.06585
RightFoot  17.1389 -5.44666 21.6605
RightToes  -1.74624e-010 0 -3.6325e-017
Spine  10.9794 -0.219055 -4.33538
Spine1  28.1121 -1.56508 1.33909
HEad  -15.5973 23.8873 -17.7751
LeftShoulder1  1.4777 -3.32958 -14.7647
LeftArm  21.5256 -4.29447 -64.7785
LeftForeArm  60.9453 -78.9042 -75.4985
LeftHand  -2.25364 -2.68868 31.8908
RightShoulder  0.921666 0.882424 14.1937
RightArm  -1.96322 -14.3881 57.3463
RightForeArm  149.098 66.2077 155.429
RightHand  -0.935023 4.55739 -11.163
LeftUpLeg  -18.6187 9.00225 0.998508
LeftLeg  44.0536 3.39041 3.92607
LeftFoot  -21.5795 -0.836694 -10.7431
LeftToes  3.7286e-011 -1.5702e-010 -9.70233e-012
148
root  8.00685 36.4928 9.98975 177.511 18.6592 173.866
RightUpLeg  -12.7158 -13.3928 -29.8894
RightLeg  9.62795 -8.90607 -4.93968
RightFoot  13.8218 -4.43436 20.1405
RightToes  -1.74624e-010 0 -3.6325e-017
Spine  10.8533 -0.0766146 -4.96535
Spine1  28.7319 -1.5262 1.45069
HEad  -14.7123 24.9684 -18.0973
LeftShoulder1  1.42568 -3.39839 -13.6922
LeftArm  18.2508 -6.12995 -64.7352
LeftForeArm  58.2262 -78.7728 -75.3713
LeftHand  -2.31176 -2.22534 34.5269
RightShoulder  0.923727 1.03155 13.4767
RightArm  0.0320929 -13.6446 57.8194
RightForeArm  149.458 66.5747 155.062
RightHand  -0.926133 4.60619 -11.0089
LeftUpLeg  -17.196 8.70622 -1.081
LeftLeg  42.6883 6.0627 6.34941
LeftFoot  -21.119 -0.67382 -9.31527
LeftToes  3.7286e-011 -1.5702e-010 -9.70233e-012
149
root  7.17241 37.0575 9.85932 177.563 20.7846 174.103
RightUpLeg  -13.9436 -5.25639 -28.5538
RightLeg  14.4185 -10.4336 -4.39969
RightFoot  8.96512 -3.54521 19.9461
RightToes  -1.74624e-010 0 -3.6325e-017
Spine  10.3189 0.00704764 -4.88821
Spine1  28.8202 -1.2461 1.08885
HEad  -13.9337 25.9249 -18.6161
LeftShoulder1  1.30809 -2.97927 -13.1734
LeftArm  14.7062 -5.36247 -64.19
LeftForeArm  68.9605 -79.0576 -87.3695
LeftHand  -2.36703 -2.23481 35.2648
RightShoulder  0.92634 1.19492 12.7472
RightArm  1.83644 -13.5936 57.902
RightForeArm  149.452 66.1467 155.532
RightHand  -0.934346 4.65469 -11.0543
LeftUpLeg  -15.7381 8.67573 -2.51666
LeftLeg  39.4467 8.73624 8.02342
LeftFoot  -18.9179 -0.422349 -8.07941
LeftToes  3.7286e-011 -1.5702e-010 -9.70233e-012
150
root  6.47404 37.8607 9.74988 178.312 22.241 174.722
RightUpLeg  -14.7898 -0.498894 -25.2759
RightLeg  18.5502 -11.6085 -4.39249
RightFoot  6.69713 -2.90141 18.4352
RightToes  -1.74624e-010 0 -3.6325e-017
Spine  9.61275 -0.17707 -4.11274
Spine1  28.4903 -1.11595 0.596206
HEad  -12.9661 26.8345 -19.1404
LeftShoulder1  1.17996 -2.30385 -13.323
LeftArm  11.7905 -3.03923 -63.0736
LeftForeArm  86.7521 -78.9032 -102.988
LeftHand  -2.40484 -2.69872 33.8685
RightShoulder  0.916327 1.25388 12.2403
RightArm  3.26503 -14.0141 57.7973
RightForeArm  148.318 65.4322 156.165
RightHand  -0.885791 4.46578 -10.6827
LeftUpLeg  -14.3439 8.96677 -3.10885
LeftLeg  34.6696 9.85698 7.63906
LeftFoot  -14.8394 -0.151433 -7.96959
LeftToes  3.7286e-011 -1.5702e-010 -9.70233e-012
151
root  5.87131 38.7542 9.69352 179.338 22.4951 175.401
RightUpLeg  -14.5534 -0.294241 -20.5302
RightLeg  21.0594 -11.5432 -5.0669
RightFoot  6.01803 -2.62524 17.3431
RightToes  -1.74624e-010 0 -3.6325e-017
Spine  9.23338 -0.54403 -3.3108
Spine1  27.5578 -1.40678 0.656727
HEad  -11.6925 27.6972 -19.0716
LeftShoulder1  1.05978 -1.69494 -13.3885
LeftArm  9.91177 0.0257723 -62.0661
LeftForeArm  102.314 -78.3266 -114.553
LeftHand  -2.46399 -3.30531 32.3662
RightShoulder  0.891062 1.20627 11.8612
RightArm  4.29281 -14.8857 57.7458
RightForeArm  147.781 64.7289 156.816
RightHand  -0.742672 3.98883 -9.43226
LeftUpLeg  -13.4914 9.95593 -3.25406
LeftLeg  29.8524 9.35392 6.12234
LeftFoot  -8.91466 0.225809 -8.35504
LeftToes  3.7286e-011 -1.5702e-010 -9.70233e-012
152
root  5.36204 39.5198 9.70475 -179.759 21.8844 175.882
RightUpLeg  -13.6645 -0.995989 -15.8051
RightLeg  22.524 -8.7759 -4.17832
RightFoot  3.53784 -2.66462 20.5513
RightToes  -1.74624e-010 0 -3.6325e-017
Spine  9.23045 -0.884017 -2.90714
Spine1  26.2997 -1.87378 1.12943
HEad  -10.5292 28.2716 -18.1431
LeftShoulder1  0.937827 -1.17027 -13.0331
LeftArm  9.21224 3.0957 -61.4494
LeftForeArm  112.591 -77.4941 -122.841
LeftHand  -2.4891 -3.58178 31.7295
RightShoulder  0.866437 1.15055 11.5252
RightArm  4.91744 -16.0681 57.5606
RightForeArm  149.238 63.9041 157.754
RightHand  -0.585866 3.54024 -7.86251
LeftUpLeg  -13.659 12.1571 -3.19368
LeftLeg  26.7911 6.87675 4.11197
LeftFoot  -2.34222 0.70274 -8.70728
LeftToes  3.7286e-011 -1.5702e-010 -9.70233e-012
